# xmcd CD database file
#
# Track frame offsets:
#	150
#	20562
#	41302
#	60108
#	79353
#	96469
#	111309
#	131084
#	145626
#	160689
#	180101
#	200880
#
# Disc length: 2915 seconds
#
# Revision: 0
# Processed by: cddbd v1.5.2PL0 Copyright (c) Steve Scherf et al.
# Submitted via: CDex 2.07
#
DISCID=9b0b610c
DTITLE=Damian Wilson - Lat's Start A Commune
DYEAR=1900
DGENRE=Power Ballad
TTITLE0=commune
TTITLE1=light in the middle
TTITLE2=sunshine
TTITLE3=a long way home
TTITLE4=the last moment
TTITLE5=one life
TTITLE6=smile
TTITLE7=subway
TTITLE8=fine weather
TTITLE9=sent to you
TTITLE10=feels good
TTITLE11=warning lights
EXTD=
EXTT0=
EXTT1=
EXTT2=
EXTT3=
EXTT4=
EXTT5=
EXTT6=
EXTT7=
EXTT8=
EXTT9=
EXTT10=
EXTT11=
PLAYORDER=
